<?xml version="1.0"?>
<svg xmlns="http://www.w3.org/2000/svg" id="light" enable-background="new 0 0 24 24" height="512px" viewBox="0 0 24 24" width="512px"><g><g><path d="m14.5 15.2c-.5 0-1-.2-1.3-.5l-1-1c-.2-.2-.2-.5 0-.7s.5-.2.7 0l1 1c.3.3.9.3 1.3 0 .4-.4.4-.9 0-1.3l-3-3c-.2-.2-.2-.5 0-.7s.5-.2.7 0l3 3c.7.7.7 1.9 0 2.7-.4.3-.9.5-1.4.5z" data-original="#000000" class="active-path" data-old_color="#000000" fill="#FFFFFF"/></g><g><path d="m3.5 8.5c-.2 0-.4-.1-.5-.3-.1-.3 0-.5.3-.7l4.3-1.8c.9-.4 2-.2 2.7.5l.6.6c.2.2.2.5 0 .7s-.5.2-.7 0l-.6-.5c-.4-.4-1.1-.5-1.6-.3l-4.3 1.8c-.1 0-.1 0-.2 0z" data-original="#000000" class="active-path" data-old_color="#000000" fill="#FFFFFF"/></g><g><path d="m10.8 10.5c-.5 0-.9-.2-1.3-.5-.4-.5-.6-1.1-.5-1.7s.4-1.1 1-1.3l3.5-1.7c.7-.3 1.4-.4 2.1-.1l5.2 2.1c.3.1.4.4.3.7s-.4.4-.7.3l-5.2-2.1c-.4-.2-.9-.2-1.2 0l-3.5 1.7c-.3.1-.5.3-.5.6s0 .5.2.7c.3.3.7.3 1 .2l3.1-1.6c.2-.1.5 0 .7.2.1.2 0 .5-.2.7l-3.1 1.6c-.3.1-.6.2-.9.2z" data-original="#000000" class="active-path" data-old_color="#000000" fill="#FFFFFF"/></g><g><path d="m12.5 17.1c-.5 0-1-.2-1.3-.6l-1.3-1.3c-.2-.2-.2-.5 0-.7s.5-.2.7 0l1.3 1.3c.3.3.9.3 1.3 0s.3-.9 0-1.3l-1-1c-.2-.2-.2-.5 0-.7s.5-.2.7 0l1 1c.7.7.7 1.9 0 2.7-.4.4-.9.6-1.4.6z" data-original="#000000" class="active-path" data-old_color="#000000" fill="#FFFFFF"/></g><g><path d="m10.3 18.9c-.5 0-.9-.2-1.3-.5l-2.3-2.1c-.9-.8-2-1.2-3.2-1.2-.3-.1-.5-.3-.5-.6s.2-.5.5-.5c1.4 0 2.8.5 3.9 1.5l2.3 2.1c.4.3.9.3 1.3 0 .4-.4.4-.9 0-1.3l-1-1c-.2-.2-.2-.5 0-.7s.5-.2.7 0l1 1c.7.7.7 1.9 0 2.7-.4.4-.9.6-1.4.6z" data-original="#000000" class="active-path" data-old_color="#000000" fill="#FFFFFF"/></g><g><path d="m18.1 15.5c-.3 0-.5 0-.8-.1l-1.9-.6c-.3-.1-.4-.4-.3-.6.1-.3.4-.4.6-.3l1.9.6c.5.2 1.1.1 1.5-.3l1.1-1c.2-.2.5-.2.7 0s.2.5 0 .7l-1.1 1c-.6.4-1.2.6-1.7.6z" data-original="#000000" class="active-path" data-old_color="#000000" fill="#FFFFFF"/></g><g><path d="m23.5 16h-3c-.3 0-.5-.2-.5-.5v-9c0-.3.2-.5.5-.5h3c.3 0 .5.2.5.5v9c0 .3-.2.5-.5.5zm-2.5-1h2v-8h-2z" data-original="#000000" class="active-path" data-old_color="#000000" fill="#FFFFFF"/></g><g><path d="m3.5 16h-3c-.3 0-.5-.2-.5-.5v-9c0-.3.2-.5.5-.5h3c.3 0 .5.2.5.5v9c0 .3-.2.5-.5.5zm-2.5-1h2v-8h-2z" data-original="#000000" class="active-path" data-old_color="#000000" fill="#FFFFFF"/></g></g> </svg>
