<?xml version="1.0"?>
<svg xmlns="http://www.w3.org/2000/svg" height="512px" viewBox="-10 0 512 512.00111" width="512px"><g><path d="m480.972656 2.738281c-10.230468-5.761719-23.191406-2.136719-28.949218 8.089844l-24.644532 43.757813c14.519532 14.707031 20.90625 35.644531 17.367188 55.773437l44.3125-78.671875c5.761718-10.226562 2.136718-23.1875-8.085938-28.949219zm0 0" data-original="#000000" class="active-path" data-old_color="#000000" fill="#FFFFFF"/><path d="m400.972656 252.871094-58.417968-1.964844 6.332031-45.332031 1.816406 31.847656 19.554687.65625 14.863282-25.125c7.910156-13.375 5.210937-30.074219-5.570313-40.355469l16.871094-11.371094c-4.65625 1.082032-9.460937 1.652344-14.332031 1.652344-13.78125 0-27.527344-4.53125-38.949219-13.386718-7.253906 8.921874-212.972656 261.890624-223.335937 274.636718-8.484376 10.433594-22.507813 14.425782-35.238282 9.992188l-34.484375 35.441406c-9.632812 9.898438-9.414062 25.726562.484375 35.355469 9.894532 9.625 25.722656 9.417969 35.355469-.484375l100.355469-103.144532c1.140625-1.167968 2.164062-2.449218 3.050781-3.816406 52.011719-80.109375 48.648437-74.859375 49.296875-75.957031l14.195312 8.394531 12.027344 75.078125-63.332031 52.566407c-10.625 8.816406-12.089844 24.582031-3.269531 35.207031 8.84375 10.660156 24.613281 12.0625 35.207031 3.269531l74.308594-61.675781c6.804687-5.644531 10.121093-14.464844 8.71875-23.195313l-10.359375-64.652344 23.511718-39.746093c-1.828124-.0625-17.15625-.578125-18.878906-.636719-20.019531-.671875-33.734375-20.445312-27.179687-39.613281l21.355469-53.464844-7.734376 55.367187c-1.742187 12.480469 7.710938 23.753907 20.332032 24.179688l82.015625 2.761719c.242187.007812.484375.011719.726562.011719 11.40625 0 20.84375-9.050782 21.230469-20.535157.390625-11.734375-8.796875-21.566406-20.527344-21.960937zm0 0" data-original="#000000" class="active-path" data-old_color="#000000" fill="#FFFFFF"/><path d="m108.078125 414.589844 221.589844-272.488282-15.25-9.019531c-10.484375-6.203125-23.605469-6.078125-34 .4375l-272.539063 170.84375c-8.890625 5.574219-10.554687 17.847657-3.464844 25.585938l78.238282 85.390625c6.925781 7.558594 18.953125 7.207031 25.425781-.75zm0 0" data-original="#000000" class="active-path" data-old_color="#000000" fill="#FFFFFF"/><path d="m406.816406 57.550781c-23.191406-13.71875-52.863281-5.851562-66.40625 17.042969-13.632812 23.046875-6 52.777344 17.042969 66.40625 23.191406 13.71875 52.863281 5.851562 66.40625-17.042969 13.628906-23.046875 6-52.777343-17.042969-66.40625zm0 0" data-original="#000000" class="active-path" data-old_color="#000000" fill="#FFFFFF"/></g> </svg>
