<?xml version="1.0"?>
<svg xmlns="http://www.w3.org/2000/svg" id="_x31__x2C_5_px" enable-background="new 0 0 24 24" height="512px" viewBox="0 0 24 24" width="512px"><g><path d="m10 11c-4.848 0-10-1.577-10-4.5s5.152-4.5 10-4.5 10 1.577 10 4.5-5.152 4.5-10 4.5zm0-7.5c-5.267 0-8.5 1.747-8.5 3s3.233 3 8.5 3 8.5-1.747 8.5-3-3.233-3-8.5-3z" data-original="#000000" class="active-path" data-old_color="#000000" fill="#FFFFFF"/><path d="m19.25 11c-.414 0-.75-.336-.75-.75v-3.5c0-.414.336-.75.75-.75s.75.336.75.75v3.5c0 .414-.336.75-.75.75z" data-original="#000000" class="active-path" data-old_color="#000000" fill="#FFFFFF"/><path d="m10.25 22c-5.844 0-10.25-2.042-10.25-4.75 0-.414.336-.75.75-.75s.75.336.75.75c0 1.534 3.742 3.25 8.75 3.25.414 0 .75.336.75.75s-.336.75-.75.75z" data-original="#000000" class="active-path" data-old_color="#000000" fill="#FFFFFF"/><path d="m.75 18c-.414 0-.75-.336-.75-.75v-10.75c0-.414.336-.75.75-.75s.75.336.75.75v10.75c0 .414-.336.75-.75.75z" data-original="#000000" class="active-path" data-old_color="#000000" fill="#FFFFFF"/><path d="m23.25 22h-13c-.414 0-.75-.336-.75-.75s.336-.75.75-.75h11.417l-.497-.608c-.227-.276-.227-.674 0-.95l1.111-1.358-1.111-1.358c-.227-.276-.227-.674 0-.95l1.111-1.358-1.111-1.358c-.227-.276-.227-.674 0-.95l.497-.61h-11.417c-.414 0-.75-.336-.75-.75s.336-.75.75-.75h13c.29 0 .554.167.678.429s.086.572-.098.796l-1.111 1.358 1.111 1.358c.227.276.227.674 0 .95l-1.111 1.358 1.111 1.358c.227.276.227.674 0 .95l-1.111 1.358 1.111 1.358c.184.225.222.534.098.796-.124.264-.388.431-.678.431z" data-original="#000000" class="active-path" data-old_color="#000000" fill="#FFFFFF"/><path d="m10 8.5c-2.307 0-5-.524-5-2s2.693-2 5-2 5 .524 5 2-2.693 2-5 2zm-3.259-2c.519.229 1.65.5 3.259.5s2.74-.271 3.259-.5c-.519-.229-1.65-.5-3.259-.5s-2.74.271-3.259.5zm6.811.182h.01z" data-original="#000000" class="active-path" data-old_color="#000000" fill="#FFFFFF"/></g> </svg>
